<svg xmlns="http://www.w3.org/2000/svg" viewBox="0 0 507 492"><defs><style>.cls-1{fill:#282425;}.cls-2{fill:#fff;}.cls-3{fill:#2f3690;}.cls-4{fill:#2bace2;}</style></defs><title>Asset 2</title><g id="Layer_2" data-name="Layer 2"><g id="Layer_1-2" data-name="Layer 1"><path class="cls-1" d="M0,491V0H506c0,1.83-.08,3.66-.08,5.48V490.91h-5.57q-197.55,0-395.1,0Q52.63,490.93,0,491Zm193.8-17.43c1.53.9,3,2.57,4.58,2.58q52.23.23,104.44,0c1.52,0,3-1.7,4.54-2.61H488.12V17.21H24c-6.63,0-6.63,0-6.63,6.74q0,221.78,0,443.56v5.94H98Z"/><path class="cls-2" d="M0,491q52.62,0,105.25-.09,197.55,0,395.1,0h5.57V5.48c0-1.82.05-3.65.08-5.48a18.1,18.1,0,0,1,1,4q.07,39.42,0,78.84V492q-251.25,0-502.51,0A21.83,21.83,0,0,1,0,491Z"/><path class="cls-3" d="M193.8,473.57c-4.48-12.24-8.84-24.53-13.45-36.73q-31.24-82.77-62.61-165.5-23.07-61-46.09-122c-.39-1-.72-2.13-1.25-3.69,1.76-.14,3.16-.34,4.56-.34,32.43,0,64.86,0,97.29-.07,3.29,0,4.91.7,6,4.16q33.19,106.71,66.7,213.31c2.06,6.56,4.16,13.11,6.69,21.08,5.22-16.75,10-32.06,14.76-47.39Q291.68,254.51,317,172.56c2.43-7.89,5-15.75,7.28-23.69.7-2.44,1.6-3.58,4.34-3.57,32.6.08,65.2,0,97.79.06a18,18,0,0,1,2.41.39c-4,10.89-7.82,21.58-11.79,32.24q-30.24,81.3-60.53,162.59Q332.17,405.86,308,471.15a21.45,21.45,0,0,0-.61,2.39c-1.51.91-3,2.6-4.54,2.61q-52.21.23-104.44,0C196.85,476.14,195.33,474.47,193.8,473.57Z"/><path class="cls-4" d="M111,120.55V104.07H427.73v16.48Z"/></g></g></svg>